HIERARCHY
ROOT hip
{
  OFFSET 0 0 0
  CHANNELS 6 Xposition Yposition Zposition Zrotation Yrotation Xrotation
  JOINT abdomen
  {
    OFFSET 0 20.6881 -0.73152
    CHANNELS 3 Zrotation Xrotation Yrotation
    JOINT chest
    {
      OFFSET 0 11.7043 -0.48768
      CHANNELS 3 Zrotation Xrotation Yrotation
      JOINT neck
      {
        OFFSET 0 22.1894 -2.19456
        CHANNELS 3 Zrotation Xrotation Yrotation
        JOINT head
        {
          OFFSET -0.24384 7.07133 1.2192
          CHANNELS 3 Zrotation Xrotation Yrotation
          JOINT leftEye
          {
            OFFSET 4.14528 8.04674 8.04672
            CHANNELS 3 Zrotation Xrotation Yrotation
            End Site
            {
              OFFSET 1 0 0
            }
          }
          JOINT rightEye
          {
            OFFSET -3.6576 8.04674 8.04672
            CHANNELS 3 Zrotation Xrotation Yrotation
            End Site
            {
              OFFSET 1 0 0
            }
          }
        }
      }
      JOINT rCollar
      {
        OFFSET -2.68224 19.2634 -4.8768
        CHANNELS 3 Zrotation Xrotation Yrotation
        JOINT rShldr
        {
          OFFSET -8.77824 -1.95073 1.46304
          CHANNELS 3 Zrotation Xrotation Yrotation
          JOINT rForeArm
          {
            OFFSET -28.1742 -1.7115 0.48768
            CHANNELS 3 Zrotation Xrotation Yrotation
            JOINT rHand
            {
              OFFSET -22.5879 0.773209 7.07136
              CHANNELS 3 Zrotation Xrotation Yrotation
              JOINT rThumb1
              {
                OFFSET -1.2192 -0.487915 3.41376
                CHANNELS 3 Zrotation Xrotation Yrotation
                JOINT rThumb2
                {
                  OFFSET -3.37035 -0.52449 3.41376
                  CHANNELS 3 Zrotation Xrotation Yrotation
                  End Site
                  {
                    OFFSET -1.78271 -1.18214 1.43049
                  }
                }
              }
              JOINT rIndex1
              {
                OFFSET -7.75947 0.938293 5.60832
                CHANNELS 3 Zrotation Xrotation Yrotation
                JOINT rIndex2
                {
                  OFFSET -2.54057 -0.884171 1.56538
                  CHANNELS 3 Zrotation Xrotation Yrotation
                  End Site
                  {
                    OFFSET -1.62519 -0.234802 1.16502
                  }
                }
              }
              JOINT rMid1
              {
                OFFSET -8.24714 1.18213 3.41376
                CHANNELS 3 Zrotation Xrotation Yrotation
                JOINT rMid2
                {
                  OFFSET -3.10165 -0.590103 1.0647
                  CHANNELS 3 Zrotation Xrotation Yrotation
                  End Site
                  {
                    OFFSET -2.48547 -0.328903 0.83742
                  }
                }
              }
              JOINT rRing1
              {
                OFFSET -8.82822 0.546677 1.51678
                CHANNELS 3 Zrotation Xrotation Yrotation
                JOINT rRing2
                {
                  OFFSET -2.60934 -0.819778 -0.0198488
                  CHANNELS 3 Zrotation Xrotation Yrotation
                  End Site
                  {
                    OFFSET -2.33842 -0.294052 0.168128
                  }
                }
              }
              JOINT rPinky1
              {
                OFFSET -8.27202 -0.0477905 -0.4584
                CHANNELS 3 Zrotation Xrotation Yrotation
                JOINT rPinky2
                {
                  OFFSET -1.82734 -0.647385 -0.700984
                  CHANNELS 3 Zrotation Xrotation Yrotation
                  End Site
                  {
                    OFFSET -1.69225 -0.51767 -0.607171
                  }
                }
              }
            }
          }
        }
      }
      JOINT lCollar
      {
        OFFSET 2.68224 19.2634 -4.8768
        CHANNELS 3 Zrotation Xrotation Yrotation
        JOINT lShldr
        {
          OFFSET 8.77824 -1.95073 1.46304
          CHANNELS 3 Zrotation Xrotation Yrotation
          JOINT lForeArm
          {
            OFFSET 28.1742 -1.7115 0.48768
            CHANNELS 3 Zrotation Xrotation Yrotation
            JOINT lHand
            {
              OFFSET 22.5879 0.773209 7.07136
              CHANNELS 3 Zrotation Xrotation Yrotation
              JOINT lThumb1
              {
                OFFSET 1.2192 -0.487915 3.41376
                CHANNELS 3 Zrotation Xrotation Yrotation
                JOINT lThumb2
                {
                  OFFSET 3.37035 -0.52449 3.41376
                  CHANNELS 3 Zrotation Xrotation Yrotation
                  End Site
                  {
                    OFFSET 1.78271 -1.18214 1.43049
                  }
                }
              }
              JOINT lIndex1
              {
                OFFSET 7.75947 0.938293 5.60832
                CHANNELS 3 Zrotation Xrotation Yrotation
                JOINT lIndex2
                {
                  OFFSET 2.54057 -0.884171 1.56538
                  CHANNELS 3 Zrotation Xrotation Yrotation
                  End Site
                  {
                    OFFSET 1.62519 -0.234802 1.16502
                  }
                }
              }
              JOINT lMid1
              {
                OFFSET 8.24714 1.18213 3.41376
                CHANNELS 3 Zrotation Xrotation Yrotation
                JOINT lMid2
                {
                  OFFSET 3.10165 -0.590103 1.0647
                  CHANNELS 3 Zrotation Xrotation Yrotation
                  End Site
                  {
                    OFFSET 2.48547 -0.328903 0.83742
                  }
                }
              }
              JOINT lRing1
              {
                OFFSET 8.82822 0.546677 1.51678
                CHANNELS 3 Zrotation Xrotation Yrotation
                JOINT lRing2
                {
                  OFFSET 2.60934 -0.819778 -0.0198488
                  CHANNELS 3 Zrotation Xrotation Yrotation
                  End Site
                  {
                    OFFSET 2.33842 -0.294052 0.168128
                  }
                }
              }
              JOINT lPinky1
              {
                OFFSET 8.27202 -0.0477905 -0.4584
                CHANNELS 3 Zrotation Xrotation Yrotation
                JOINT lPinky2
                {
                  OFFSET 1.82734 -0.647385 -0.700984
                  CHANNELS 3 Zrotation Xrotation Yrotation
                  End Site
                  {
                    OFFSET 1.69225 -0.51767 -0.607171
                  }
                }
              }
            }
          }
        }
      }
    }
  }
  JOINT rButtock
  {
    OFFSET -8.77824 4.35084 1.2192
    CHANNELS 3 Zrotation Xrotation Yrotation
    JOINT rThigh
    {
      OFFSET 0 -1.70687 -2.19456
      CHANNELS 3 Zrotation Xrotation Yrotation
      JOINT rShin
      {
        OFFSET 0 -36.8199 0.73152
        CHANNELS 3 Zrotation Xrotation Yrotation
        JOINT rFoot
        {
          OFFSET 0.73152 -45.1104 -5.12064
          CHANNELS 3 Zrotation Xrotation Yrotation
          End Site
          {
            OFFSET -1.1221 -3.69964 12.103
          }
        }
      }
    }
  }
  JOINT lButtock
  {
    OFFSET 8.77824 4.35084 1.2192
    CHANNELS 3 Zrotation Xrotation Yrotation
    JOINT lThigh
    {
      OFFSET 0 -1.70687 -2.19456
      CHANNELS 3 Zrotation Xrotation Yrotation
      JOINT lShin
      {
        OFFSET 0 -36.8199 0.73152
        CHANNELS 3 Zrotation Xrotation Yrotation
        JOINT lFoot
        {
          OFFSET -0.73152 -45.1104 -5.12064
          CHANNELS 3 Zrotation Xrotation Yrotation
          End Site
          {
            OFFSET 1.1221 -3.69964 12.103
          }
        }
      }
    }
  }
}
MOTION
Frames:	4
Frame Time:	0.00833333
289.87 81.8764 -150.38 0.0 0.0 0.0 -2.59964 0.00036599 -0.0702748 -0.716704 0.01229 -0.12403 -5.90714e-14 -3.18055e-15 -2.98177e-16 -1.7694e-13 -6.36111e-15 -7.93586e-16 -0.0 0.0 0.0 -0.0 0.0 0.0 -2.96217e-14 -8.63859e-17 4.96962e-17 -6.1721e-13 -1.75179e-15 -4.17448e-15 -1.0667e-11 3.14239e-12 4.13472e-14 -1.22266e-10 -3.53243e-12 -7.85597e-13 -2.88362e-10 -8.4838e-13 -1.56483e-12 -4.98e-10 -1.45987e-12 -2.70347e-12 -2.88354e-10 -8.43642e-13 -1.58074e-12 7.73091 5.47488 0.417314 -2.88362e-10 -8.48115e-13 -1.56801e-12 2.90554 0.965183 0.102902 -2.88355e-10 -8.47717e-13 -1.56642e-12 10.2786 0.731801 0.0259123 -2.88361e-10 -8.51594e-13 -1.55211e-12 2.22167 -0.733487 -0.20892 -2.95187e-14 -8.54153e-17 -3.47873e-16 -6.22774e-13 -1.34801e-15 -5.76476e-15 -1.06979e-11 -3.24953e-12 4.77083e-14 -1.22207e-10 2.87974e-12 -7.66514e-13 -2.88306e-10 -8.11102e-13 -1.56165e-12 -4.97888e-10 -1.40262e-12 -2.67962e-12 -2.88311e-10 -8.07861e-13 -1.55211e-12 -7.73091 5.47488 -0.417314 -2.88306e-10 -8.10346e-13 -1.55847e-12 -2.90554 0.965183 -0.102902 -2.88317e-10 -8.10246e-13 -1.56006e-12 -10.2786 0.731801 -0.0259123 -2.88309e-10 -8.13029e-13 -1.57437e-12 -2.22167 -0.733487 0.20892 -2.03217e-16 0.0 -3.88251e-19 -1.50085 -1.93106 0.00776872 -0.00872168 -2.07863 -0.0717155 -0.472665 3.99921 0.134511 2.03217e-16 0.0 3.88251e-19 -2.45046 -8.43846 0.261211 -0.00685671 9.70808 -0.175596 0.52324 -1.28001 -0.0328365
283.649 80.4637 -153.662 -5.6583 -59.5317 3.4038 -2.68798 1.59876 0.239623 -1.1322 0.512908 -0.0715909 0.464253 4.03829 -0.259897 0.317831 -13.2659 -0.498034 -0.0 0.0 0.0 -0.0 0.0 0.0 1.76336e-14 -6.02587e-14 -2.71152e-13 22.1719 6.25112 0.793966 -4.83235 -2.33306 7.39271 8.72312e-05 0.223503 0.0314107 7.73764e-10 -6.26317e-10 -9.9578e-10 1.33758e-09 -1.08536e-09 -1.72615e-09 7.7377e-10 -6.26314e-10 -9.95792e-10 7.73091 5.47488 0.417314 7.73764e-10 -6.26317e-10 -9.95782e-10 2.90554 0.965183 0.102902 7.7377e-10 -6.26317e-10 -9.95781e-10 10.2786 0.731801 0.0259123 7.73763e-10 -6.26318e-10 -9.9577e-10 2.22167 -0.733487 -0.20892 1.76565e-14 -6.02555e-14 -2.71512e-13 -21.2541 6.00013 -2.46207 3.52205 -1.48288 -5.62198 -0.0520686 -5.06535 0.701879 3.44383e-10 -1.28772e-09 -7.62763e-10 6.09848e-10 -2.22367e-09 -1.31383e-09 3.44378e-10 -1.28771e-09 -7.62754e-10 -7.73091 5.47488 -0.417314 3.44383e-10 -1.28771e-09 -7.6276e-10 -2.90554 0.965183 -0.102902 3.44373e-10 -1.28771e-09 -7.62762e-10 -10.2786 0.731801 -0.0259123 3.44382e-10 -1.28772e-09 -7.62773e-10 -2.22167 -0.733487 0.20892 -2.03217e-16 0.0 -3.88251e-19 -1.21008 -7.17975 -0.882973 0.0511885 11.7435 0.157821 -1.15182 -2.65968 -4.4623 2.03217e-16 0.0 3.88251e-19 -1.36452 -9.7026 4.86915 -0.0116863 16.5138 -0.272041 0.519511 -6.12337 -0.0902651
283.639 80.4763 -153.596 -5.5922 -59.5345 3.2652 -2.80033 3.28989 0.571797 -1.57279 1.0392 -0.0151432 0.998869 8.3039 -0.537422 0.368357 -27.2874 -1.12177 -0.0 0.0 0.0 -0.0 0.0 0.0 7.03728e-14 -1.26369e-13 -5.72618e-13 45.4124 12.8685 1.67401 -9.29889 -4.67534 15.2575 -9.42314e-05 0.450108 0.0632592 1.94623e-09 -1.32679e-09 -2.10684e-09 3.36386e-09 -2.29923e-09 -3.65214e-09 1.94624e-09 -1.32679e-09 -2.10685e-09 7.73091 5.47488 0.417314 1.94623e-09 -1.32679e-09 -2.10684e-09 2.90554 0.965183 0.102902 1.94624e-09 -1.32679e-09 -2.10684e-09 10.2786 0.731801 0.0259123 1.94623e-09 -1.32679e-09 -2.10683e-09 2.22167 -0.733487 -0.20892 7.03092e-14 -1.26363e-13 -5.72938e-13 -43.1557 12.3003 -5.14137 6.93014 -3.00261 -11.5765 0.0298586 -10.4143 1.46187 1.03976e-09 -2.72779e-09 -1.6175e-09 1.82767e-09 -4.71047e-09 -2.78619e-09 1.03976e-09 -2.72779e-09 -1.61749e-09 -7.73091 5.47488 -0.417314 1.03976e-09 -2.72779e-09 -1.6175e-09 -2.90554 0.965183 -0.102902 1.03976e-09 -2.72779e-09 -1.6175e-09 -10.2786 0.731801 -0.0259123 1.03976e-09 -2.72779e-09 -1.61751e-09 -2.22167 -0.733487 0.20892 -2.03217e-16 0.0 -3.88251e-19 -1.0878 -12.7289 -1.86504 -0.0170742 26.3662 0.439598 -3.04665 -9.6012 -9.46012 2.03217e-16 0.0 3.88251e-19 0.00686194 -10.9555 9.78271 0.0107045 23.7074 -0.386034 0.504047 -11.2416 -0.156341
283.629 80.4837 -153.547 -5.6009 -59.5994 3.2426 -2.91667 4.79504 0.862155 -1.96594 1.51415 0.0333075 1.50479 12.1138 -0.795469 0.0850809 -39.7837 -1.89252 -0.0 0.0 0.0 -0.0 0.0 0.0 1.12144e-13 -1.80603e-13 -8.13557e-13 65.9715 18.7385 2.50034 -12.7312 -6.53412 22.3123 -0.000473522 0.670508 0.0942378 2.89802e-09 -1.87726e-09 -2.98421e-09 5.00874e-09 -3.25317e-09 -5.17306e-09 2.89802e-09 -1.87726e-09 -2.98421e-09 7.73091 5.47488 0.417314 2.89802e-09 -1.87726e-09 -2.98421e-09 2.90554 0.965183 0.102902 2.89802e-09 -1.87726e-09 -2.98421e-09 10.2786 0.731801 0.0259123 2.89801e-09 -1.87725e-09 -2.98421e-09 2.22167 -0.733487 -0.20892 1.12007e-13 -1.80596e-13 -8.13839e-13 -62.1535 17.864 -7.72003 9.70509 -4.27762 -16.9088 0.227472 -15.1868 2.17335 1.60976e-09 -3.86152e-09 -2.28517e-09 2.82532e-09 -6.66819e-09 -3.93613e-09 1.60975e-09 -3.86152e-09 -2.28516e-09 -7.73091 5.47488 -0.417314 1.60976e-09 -3.86152e-09 -2.28516e-09 -2.90554 0.965183 -0.102902 1.60975e-09 -3.86152e-09 -2.28517e-09 -10.2786 0.731801 -0.0259123 1.60976e-09 -3.86152e-09 -2.28517e-09 -2.22167 -0.733487 0.20892 -2.03217e-16 0.0 -3.88251e-19 -1.13922 -17.6602 -2.77453 -0.236096 39.3852 0.785222 -5.77557 -15.5388 -14.1689 2.03217e-16 0.0 3.88251e-19 1.4193 -11.9685 14.1961 0.0590638 30.1248 -0.504429 0.481823 -15.81 -0.211599
